<svg width="330" height="330" viewBox="0 0 330 330" fill="none" xmlns="http://www.w3.org/2000/svg">
<path d="M165 0C120.926 0 79.4919 17.163 48.3279 48.327C-16.0061 112.66 -16.0061 217.338 48.3259 281.672C79.4899 312.837 120.926 330 165 330C209.072 330 250.508 312.837 281.672 281.672C346.006 217.338 346.006 112.66 281.672 48.327C250.508 17.163 209.072 0 165 0ZM239.246 239.245C236.316 242.174 232.478 243.639 228.639 243.639C224.801 243.639 220.961 242.174 218.034 239.245L165 186.213L111.967 239.246C109.037 242.175 105.199 243.64 101.36 243.64C97.5219 243.64 93.6819 242.175 90.7549 239.246C84.8959 233.389 84.8959 223.891 90.7549 218.033L143.787 165L90.7539 111.967C84.8949 106.11 84.8949 96.612 90.7539 90.754C96.6109 84.897 106.109 84.897 111.967 90.754L165 143.787L218.031 90.754C223.888 84.897 233.386 84.897 239.244 90.754C245.103 96.611 245.103 106.109 239.244 111.967L186.213 165L239.246 218.032C245.104 223.89 245.104 233.388 239.246 239.245Z" fill="#F71C41"/>
</svg>
