<svg width="125" height="125" viewBox="0 0 125 125" fill="none" xmlns="http://www.w3.org/2000/svg">
<path d="M58.85 4.60999C58.8242 4.12061 58.8983 3.63109 59.0679 3.17128C59.2374 2.71147 59.4988 2.29099 59.836 1.93546C60.1733 1.57993 60.5795 1.2968 61.0297 1.10332C61.48 0.909839 61.9649 0.810059 62.455 0.810059C62.9451 0.810059 63.43 0.909839 63.8802 1.10332C64.3305 1.2968 64.7366 1.57993 65.0739 1.93546C65.4112 2.29099 65.6726 2.71147 65.8421 3.17128C66.0116 3.63109 66.0858 4.12061 66.06 4.60999V28.45C66.0113 29.3733 65.6103 30.2427 64.9396 30.879C64.2689 31.5153 63.3795 31.8701 62.455 31.8701C61.5304 31.8701 60.6411 31.5153 59.9704 30.879C59.2997 30.2427 58.8986 29.3733 58.85 28.45V4.60999ZM30.42 14.15C29.9413 13.3238 29.8104 12.3414 30.056 11.4187C30.3017 10.496 30.9038 9.70871 31.73 9.22999C32.5561 8.75128 33.5386 8.62035 34.4613 8.86603C35.384 9.1117 36.1713 9.71384 36.65 10.54L48.57 31.19C48.8346 31.5992 49.0133 32.0579 49.0953 32.5383C49.1774 33.0186 49.1611 33.5106 49.0474 33.9845C48.9337 34.4584 48.7249 34.9042 48.4338 35.295C48.1427 35.6858 47.7753 36.0135 47.3538 36.2581C46.9324 36.5027 46.4656 36.6592 45.9819 36.7181C45.4981 36.777 45.0075 36.7371 44.5396 36.6007C44.0718 36.4644 43.6365 36.2345 43.2601 35.925C42.8837 35.6154 42.5741 35.2327 42.35 34.8L30.42 14.15ZM10.57 36.62C9.77568 36.1301 9.20335 35.3501 8.97433 34.4454C8.7453 33.5407 8.87757 32.5824 9.3431 31.7736C9.80863 30.9647 10.5708 30.369 11.4682 30.1126C12.3655 29.8562 13.3274 29.9593 14.15 30.4L34.8 42.32C35.2236 42.547 35.5974 42.8567 35.8991 43.2309C36.2008 43.605 36.4243 44.0359 36.5564 44.498C36.6884 44.9602 36.7263 45.4441 36.6679 45.9212C36.6094 46.3982 36.4557 46.8587 36.216 47.2752C35.9762 47.6918 35.6553 48.056 35.2721 48.3462C34.889 48.6364 34.4515 48.8467 33.9856 48.9646C33.5196 49.0826 33.0348 49.1058 32.5597 49.0328C32.0846 48.9599 31.6291 48.7923 31.22 48.54L10.57 36.62ZM4.60999 66C4.12061 66.0258 3.63109 65.9516 3.17128 65.7821C2.71147 65.6126 2.29099 65.3512 1.93546 65.0139C1.57993 64.6766 1.2968 64.2705 1.10332 63.8202C0.909839 63.37 0.810059 62.8851 0.810059 62.395C0.810059 61.9049 0.909839 61.42 1.10332 60.9697C1.2968 60.5195 1.57993 60.1133 1.93546 59.776C2.29099 59.4388 2.71147 59.1774 3.17128 59.0079C3.63109 58.8383 4.12061 58.7642 4.60999 58.79H28.45C29.3733 58.8386 30.2427 59.2397 30.879 59.9104C31.5153 60.5811 31.8701 61.4704 31.8701 62.395C31.8701 63.3195 31.5153 64.2089 30.879 64.8796C30.2427 65.5503 29.3733 65.9513 28.45 66H4.60999ZM14.15 94.43C13.3238 94.9087 12.3414 95.0396 11.4187 94.794C10.496 94.5483 9.70871 93.9461 9.22999 93.12C8.75128 92.2938 8.62035 91.3114 8.86603 90.3887C9.1117 89.466 9.71384 88.6787 10.54 88.2L31.19 76.31C31.5992 76.0454 32.0579 75.8667 32.5383 75.7846C33.0186 75.7026 33.5106 75.7189 33.9845 75.8326C34.4584 75.9463 34.9042 76.155 35.295 76.4462C35.6858 76.7373 36.0135 77.1047 36.2581 77.5261C36.5027 77.9476 36.6592 78.4144 36.7181 78.8981C36.777 79.3818 36.7371 79.8725 36.6007 80.3404C36.4644 80.8082 36.2345 81.2435 35.925 81.6199C35.6154 81.9963 35.2327 82.3059 34.8 82.53L14.15 94.46V94.43ZM36.62 114.28C36.1301 115.074 35.3501 115.647 34.4454 115.876C33.5407 116.105 32.5824 115.972 31.7736 115.507C30.9647 115.041 30.369 114.279 30.1126 113.382C29.8562 112.484 29.9593 111.523 30.4 110.7L42.32 90.08C42.547 89.6563 42.8567 89.2826 43.2309 88.9809C43.605 88.6792 44.0359 88.4557 44.498 88.3236C44.9602 88.1916 45.4441 88.1536 45.9212 88.2121C46.3982 88.2706 46.8587 88.4243 47.2752 88.664C47.6918 88.9038 48.056 89.2247 48.3462 89.6079C48.6364 89.991 48.8467 90.4285 48.9646 90.8944C49.0826 91.3603 49.1058 91.8452 49.0328 92.3203C48.9599 92.7953 48.7923 93.2509 48.54 93.66L36.62 114.31V114.28ZM66.03 120.28C66.0558 120.769 65.9817 121.259 65.8121 121.719C65.6426 122.179 65.3812 122.599 65.0439 122.955C64.7066 123.31 64.3005 123.593 63.8502 123.787C63.4 123.98 62.9151 124.08 62.425 124.08C61.9349 124.08 61.45 123.98 60.9997 123.787C60.5495 123.593 60.1433 123.31 59.806 122.955C59.4688 122.599 59.2074 122.179 59.0379 121.719C58.8683 121.259 58.7942 120.769 58.82 120.28V96.43C58.8686 95.5067 59.2697 94.6373 59.9404 94.001C60.6111 93.3647 61.5004 93.0099 62.425 93.0099C63.3495 93.0099 64.2389 93.3647 64.9096 94.001C65.5803 94.6373 65.9813 95.5067 66.03 96.43V120.28ZM94.46 110.74C94.9387 111.566 95.0696 112.549 94.824 113.471C94.5783 114.394 93.9761 115.181 93.15 115.66C92.3238 116.139 91.3414 116.27 90.4187 116.024C89.496 115.778 88.7087 115.176 88.23 114.35L76.31 93.69C75.8847 92.8687 75.7918 91.9153 76.0505 91.0274C76.3092 90.1394 76.8998 89.3851 77.6997 88.9209C78.4996 88.4566 79.4475 88.3181 80.3468 88.5339C81.2461 88.7497 82.0279 89.3033 82.53 90.08L94.46 110.73V110.74ZM114.31 88.27C115.104 88.7599 115.677 89.5398 115.906 90.4445C116.135 91.3492 116.002 92.3076 115.537 93.1164C115.071 93.9252 114.309 94.521 113.412 94.7774C112.515 95.0338 111.553 94.9307 110.73 94.49L90.08 82.56C89.6563 82.333 89.2826 82.0233 88.9809 81.6491C88.6792 81.275 88.4557 80.8441 88.3236 80.382C88.1916 79.9198 88.1536 79.4359 88.2121 78.9588C88.2706 78.4818 88.4243 78.0213 88.664 77.6048C88.9038 77.1882 89.2247 76.824 89.6079 76.5338C89.991 76.2436 90.4285 76.0333 90.8944 75.9154C91.3603 75.7974 91.8452 75.7742 92.3203 75.8472C92.7953 75.9201 93.2509 76.0877 93.66 76.34L114.31 88.26V88.27ZM120.31 58.86C120.799 58.8342 121.289 58.9083 121.749 59.0779C122.209 59.2474 122.629 59.5088 122.985 59.846C123.34 60.1833 123.623 60.5895 123.817 61.0397C124.01 61.49 124.11 61.9749 124.11 62.465C124.11 62.9551 124.01 63.44 123.817 63.8902C123.623 64.3405 123.34 64.7466 122.985 65.0839C122.629 65.4212 122.209 65.6826 121.749 65.8521C121.289 66.0217 120.799 66.0958 120.31 66.07H96.43C95.5067 66.0213 94.6373 65.6203 94.001 64.9496C93.3647 64.2789 93.0099 63.3895 93.0099 62.465C93.0099 61.5404 93.3647 60.6511 94.001 59.9804C94.6373 59.3097 95.5067 58.9086 96.43 58.86H120.31ZM110.77 30.43C111.179 30.193 111.631 30.0388 112.099 29.9764C112.568 29.9139 113.044 29.9444 113.501 30.066C113.958 30.1877 114.387 30.3981 114.762 30.6853C115.138 30.9726 115.453 31.3309 115.69 31.74C115.927 32.1491 116.081 32.6008 116.144 33.0695C116.206 33.5381 116.176 34.0144 116.054 34.4713C115.932 34.9282 115.722 35.3566 115.435 35.7321C115.147 36.1077 114.789 36.423 114.38 36.66L93.69 48.57C92.8687 48.9953 91.9153 49.0882 91.0274 48.8295C90.1394 48.5708 89.3851 47.9802 88.9209 47.1803C88.4566 46.3804 88.3181 45.4325 88.5339 44.5332C88.7497 43.6339 89.3033 42.8521 90.08 42.35L110.73 30.42L110.77 30.43ZM88.26 10.57C88.487 10.1463 88.7967 9.77258 89.1709 9.47088C89.545 9.16917 89.9759 8.94567 90.438 8.81361C90.9002 8.68156 91.3841 8.64364 91.8612 8.70211C92.3382 8.76059 92.7987 8.91425 93.2152 9.15401C93.6318 9.39376 93.996 9.71472 94.2862 10.0979C94.5764 10.481 94.7867 10.9185 94.9046 11.3844C95.0226 11.8503 95.0458 12.3352 94.9728 12.8103C94.8999 13.2853 94.7323 13.7409 94.48 14.15L82.56 34.8C82.333 35.2236 82.0233 35.5974 81.6491 35.8991C81.275 36.2008 80.8441 36.4243 80.382 36.5564C79.9198 36.6884 79.4359 36.7263 78.9588 36.6679C78.4818 36.6094 78.0213 36.4557 77.6048 36.216C77.1882 35.9762 76.824 35.6553 76.5338 35.2721C76.2436 34.889 76.0333 34.4515 75.9154 33.9856C75.7974 33.5196 75.7742 33.0348 75.8472 32.5597C75.9201 32.0846 76.0877 31.6291 76.34 31.22L88.26 10.57Z" fill="#fff"/>
</svg>
