<svg width="24" height="32" viewBox="0 0 24 32" fill="none" xmlns="http://www.w3.org/2000/svg">
<path d="M23.9479 8.41C23.9144 8.32975 23.8655 8.25681 23.8039 8.19531L15.804 0.195312C15.6788 0.070875 15.5098 0.0006875 15.3333 0H0.666686C0.298499 0 0 0.2985 0 0.666687V31.3334C0 31.7015 0.298499 32 0.666686 32H23.3333C23.7015 32 24 31.7015 24 31.3333V8.66669C23.9998 8.5785 23.9821 8.49125 23.9479 8.41ZM16 2.276L21.7239 8H16V2.276ZM22.6666 30.6667H1.33331V1.33331H14.6666V8.66663C14.6666 9.03481 14.9651 9.33331 15.3333 9.33331H22.6666V30.6667H22.6666Z" fill="#F70042"/>
<path d="M12 13.9999C12 14.3681 12.2985 14.6666 12.6667 14.6666H18C18.3682 14.6666 18.6667 14.3681 18.6667 13.9999C18.6667 13.6318 18.3682 13.3333 18 13.3333H12.6667C12.2985 13.3333 12 13.6318 12 13.9999Z" fill="#F70042"/>
<path d="M18 18.6667H12.6667C12.2985 18.6667 12 18.9652 12 19.3334C12 19.7016 12.2985 20.0001 12.6667 20.0001H18C18.3682 20.0001 18.6667 19.7016 18.6667 19.3334C18.6667 18.9652 18.3682 18.6667 18 18.6667Z" fill="#F70042"/>
<path d="M18 24H12.6667C12.2985 24 12 24.2985 12 24.6667C12 25.0349 12.2985 25.3334 12.6667 25.3334H18C18.3682 25.3334 18.6667 25.0349 18.6667 24.6667C18.6667 24.2985 18.3682 24 18 24Z" fill="#F70042"/>
<path d="M6.1953 15.1379C6.45561 15.3982 6.87761 15.3982 7.13798 15.1379L10.4713 11.8046C10.7271 11.5398 10.7197 11.1177 10.4549 10.8619C10.1965 10.6124 9.78698 10.6124 9.52866 10.8619L6.66667 13.7239L5.13799 12.1952C4.87318 11.9394 4.45112 11.9468 4.1953 12.2116C3.9458 12.47 3.9458 12.8796 4.1953 13.1379L6.1953 15.1379Z" fill="#F70042"/>
<path d="M6.19528 20.4714C6.4556 20.7317 6.87759 20.7317 7.13797 20.4714L10.4713 17.1381C10.7271 16.8733 10.7197 16.4512 10.4549 16.1954C10.1965 15.9459 9.78696 15.9459 9.52865 16.1954L6.66666 19.0574L5.13797 17.5287C4.87316 17.2729 4.4511 17.2802 4.19529 17.5451C3.94573 17.8035 3.94573 18.213 4.19529 18.4714L6.19528 20.4714Z" fill="#F70042"/>
<path d="M9.52865 21.5287L6.66666 24.3907L5.13797 22.862C4.87316 22.6062 4.4511 22.6135 4.19529 22.8784C3.94573 23.1368 3.94573 23.5463 4.19529 23.8047L6.19528 25.8047C6.4556 26.065 6.87759 26.065 7.13797 25.8047L10.4713 22.4714C10.7271 22.2066 10.7197 21.7845 10.4549 21.5287C10.1966 21.2792 9.78696 21.2792 9.52865 21.5287Z" fill="#F70042"/>
</svg>
