<svg width="39" height="39" viewBox="0 0 39 39" fill="none" xmlns="http://www.w3.org/2000/svg">
<path fill-rule="evenodd" clip-rule="evenodd" d="M26.8402 13.8711C26.8402 17.6852 23.7481 20.7772 19.9341 20.7772C16.1199 20.7772 13.028 17.6852 13.028 13.8711C13.028 10.057 16.1199 6.96506 19.9341 6.96506C23.7481 6.96506 26.8402 10.057 26.8402 13.8711ZM23.3871 13.8711C23.3871 15.7783 21.8412 17.3242 19.9341 17.3242C18.027 17.3242 16.481 15.7783 16.481 13.8711C16.481 11.9641 18.027 10.4181 19.9341 10.4181C21.8412 10.4181 23.3871 11.9641 23.3871 13.8711Z" fill="#F70042"/>
<path fill-rule="evenodd" clip-rule="evenodd" d="M19.9341 0.059082C9.44521 0.059082 0.942322 8.56197 0.942322 19.0508C0.942322 29.5396 9.44521 38.0425 19.9341 38.0425C30.4228 38.0425 38.9258 29.5396 38.9258 19.0508C38.9258 8.56197 30.4228 0.059082 19.9341 0.059082ZM4.39536 19.0508C4.39536 22.6596 5.6256 25.9811 7.68953 28.6187C10.5287 24.9018 15.007 22.5039 20.0454 22.5039C25.0183 22.5039 29.4458 24.84 32.2899 28.4747C34.2866 25.8607 35.4727 22.5943 35.4727 19.0508C35.4727 10.469 28.5159 3.51212 19.9341 3.51212C11.3523 3.51212 4.39536 10.469 4.39536 19.0508ZM19.9341 34.5895C16.2216 34.5895 12.8133 33.2875 10.1407 31.1154C12.3262 27.9963 15.9476 25.9569 20.0454 25.9569C24.0922 25.9569 27.6746 27.946 29.8681 30.9999C27.1749 33.2413 23.7119 34.5895 19.9341 34.5895Z" fill="#F70042"/>
</svg>
