<svg width="40" height="40" viewBox="0 0 40 40" fill="none" xmlns="http://www.w3.org/2000/svg">
<path d="M5.33333 33.3333V34.6667H8V33.3333H5.33333ZM18.6667 33.3333V34.6667H21.3333V33.3333H18.6667ZM8 33.3333V31.9997H5.33333V33.3333H8ZM18.6667 31.9992V33.3333H21.3333V31.9992H18.6667ZM13.3333 26.6667C16.2791 26.6667 18.6667 29.0539 18.6667 31.9992H21.3333C21.3333 27.5805 17.7514 24 13.3333 24V26.6667ZM8 31.9997C8 29.0541 10.3877 26.6667 13.3333 26.6667V24C8.91515 24 5.33333 27.5813 5.33333 31.9997H8ZM13.3333 10.6667C10.3878 10.6667 8 13.0545 8 16H10.6667C10.6667 14.5273 11.8606 13.3333 13.3333 13.3333V10.6667ZM18.6667 16C18.6667 13.0545 16.2789 10.6667 13.3333 10.6667V13.3333C14.8061 13.3333 16 14.5273 16 16H18.6667ZM13.3333 21.3333C16.2789 21.3333 18.6667 18.9455 18.6667 16H16C16 17.4727 14.8061 18.6667 13.3333 18.6667V21.3333ZM13.3333 18.6667C11.8606 18.6667 10.6667 17.4727 10.6667 16H8C8 18.9455 10.3878 21.3333 13.3333 21.3333V18.6667ZM4 8H36V5.33333H4V8ZM37.3333 9.33333V30.6667H40V9.33333H37.3333ZM36 32H4V34.6667H36V32ZM2.66667 30.6667V9.33333H0V30.6667H2.66667ZM4 32C3.26363 32 2.66667 31.4029 2.66667 30.6667H0C0 32.8757 1.79086 34.6667 4 34.6667V32ZM37.3333 30.6667C37.3333 31.4029 36.7363 32 36 32V34.6667C38.2091 34.6667 40 32.8757 40 30.6667H37.3333ZM36 8C36.7363 8 37.3333 8.59696 37.3333 9.33333H40C40 7.12419 38.2091 5.33333 36 5.33333V8ZM4 5.33333C1.79086 5.33333 0 7.12419 0 9.33333H2.66667C2.66667 8.59696 3.26363 8 4 8V5.33333ZM24 16H32V13.3333H24V16ZM24 24H32V21.3333H24V24ZM0 40H40V37.3333H0V40ZM8 0V6.66667H10.6667V0H8ZM29.3333 0V6.66667H32V0H29.3333Z" fill="#F70042"/>
</svg>
