<svg width="50" height="50" viewBox="0 0 50 50" fill="none" xmlns="http://www.w3.org/2000/svg">
<g filter="url(#filter0_d_8_119)">
<path d="M44.7087 16.0927L39.5241 11.681V4.62548C39.5241 3.83097 38.9049 3.18448 38.1439 3.18448H34.8816C34.1206 3.18448 33.5014 3.83097 33.5014 4.62548V6.55603L26.5736 0.661157C26.0725 0.234883 25.412 0 24.7139 0C24.0185 0 23.3611 0.233442 22.8628 0.657489L4.72775 16.0926C3.90377 16.7936 3.95321 17.4041 4.05597 17.7057C4.15848 18.0066 4.4886 18.5115 5.54709 18.5115H8.03033V38.8096C8.03033 40.2582 9.15607 41.4365 10.5398 41.4365H18.3819C19.7539 41.4365 20.8286 40.2825 20.8286 38.8096V30.4857C20.8286 29.7723 21.4566 29.1226 22.1461 29.1226H27.4159C28.0732 29.1226 28.6079 29.7341 28.6079 30.4857V38.8096C28.6079 40.2335 29.7859 41.4365 31.1801 41.4365H38.8967C40.2804 41.4365 41.4062 40.258 41.4062 38.8096V18.5115H43.8894C44.9479 18.5115 45.2779 18.0066 45.3805 17.7057C45.4833 17.4041 45.5327 16.7936 44.7087 16.0927Z" fill="#F70042"/>
</g>
<defs>
<filter id="filter0_d_8_119" x="0" y="0" width="49.4365" height="49.4365" filterUnits="userSpaceOnUse" color-interpolation-filters="sRGB">
<feFlood flood-opacity="0" result="BackgroundImageFix"/>
<feColorMatrix in="SourceAlpha" type="matrix" values="0 0 0 0 0 0 0 0 0 0 0 0 0 0 0 0 0 0 127 0" result="hardAlpha"/>
<feOffset dy="4"/>
<feGaussianBlur stdDeviation="2"/>
<feComposite in2="hardAlpha" operator="out"/>
<feColorMatrix type="matrix" values="0 0 0 0 0 0 0 0 0 0 0 0 0 0 0 0 0 0 0.25 0"/>
<feBlend mode="normal" in2="BackgroundImageFix" result="effect1_dropShadow_8_119"/>
<feBlend mode="normal" in="SourceGraphic" in2="effect1_dropShadow_8_119" result="shape"/>
</filter>
</defs>
</svg>
