<svg width="42" height="34" viewBox="0 0 42 34" fill="none" xmlns="http://www.w3.org/2000/svg">
<path d="M26.3871 0.527517C27.4623 0.940656 28.0167 2.19574 27.6254 3.33083L17.7049 32.1045C17.3135 33.2396 16.1246 33.8249 15.0494 33.4117C13.9742 32.9986 13.4198 31.7435 13.8111 30.6084L23.7316 1.83473C24.123 0.699635 25.3119 0.114378 26.3871 0.527517ZM5.00183 17.5003L12.3268 25.2331C13.1359 26.0873 13.1359 27.4721 12.3268 28.3262C11.5177 29.1804 10.2059 29.1804 9.39683 28.3262L0.606824 19.0469C-0.202274 18.1927 -0.202274 16.8079 0.606824 15.9538L9.39683 6.6744C10.2059 5.82026 11.5177 5.82026 12.3268 6.6744C13.1359 7.52854 13.1359 8.91338 12.3268 9.76752L5.00183 17.5003ZM36.4347 17.5003L29.1097 9.76752C28.3006 8.91338 28.3006 7.52854 29.1097 6.6744C29.9188 5.82026 31.2306 5.82026 32.0397 6.6744L40.8297 15.9538C41.6388 16.8079 41.6388 18.1927 40.8297 19.0469L32.0397 28.3262C31.2306 29.1804 29.9188 29.1804 29.1097 28.3262C28.3006 27.4721 28.3006 26.0873 29.1097 25.2331L36.4347 17.5003Z" fill="#F70042"/>
</svg>
