<svg width="42" height="42" viewBox="0 0 42 42" fill="none" xmlns="http://www.w3.org/2000/svg">
<path d="M40.5584 32.3089L31.0814 22.832C29.2119 20.9625 26.4198 20.5983 24.1699 21.707L15.5427 13.0798V8.05401L5.18361 0.284668L0.00404647 5.46423L7.77339 15.8234H12.7992L21.4264 24.4506C20.3257 26.7004 20.6818 29.4925 22.5513 31.362L32.0283 40.839C33.2099 42.0206 35.1199 42.0206 36.2934 40.839L40.5584 36.574C41.7319 35.3924 41.7319 33.4824 40.5584 32.3089ZM26.8487 18.4941C29.1391 18.4941 31.2918 19.3843 32.9105 21.0029L34.4805 22.573C35.7592 22.0146 36.9732 21.2376 38.0253 20.1855C41.0278 17.183 42.0475 12.9584 41.0925 9.1223C40.9145 8.39392 40 8.14304 39.4658 8.67718L33.4446 14.6984L27.9494 13.7839L27.0349 8.28871L33.0561 2.26747C33.5903 1.73333 33.3313 0.81881 32.5948 0.63267C28.7587 -0.314219 24.5341 0.705507 21.5397 3.69994C19.2332 6.00647 18.1487 9.04946 18.2054 12.0844L24.8498 18.7288C25.5053 18.575 26.1851 18.4941 26.8487 18.4941ZM18.4401 25.1304L13.8513 20.5416L1.51745 32.8835C-0.505817 34.9068 -0.505817 38.1845 1.51745 40.2078C3.54072 42.231 6.81841 42.231 8.84167 40.2078L18.8447 30.2047C18.2296 28.5942 18.0435 26.838 18.4401 25.1304ZM5.18361 38.4839C4.11532 38.4839 3.24127 37.6099 3.24127 36.5416C3.24127 35.4652 4.10723 34.5993 5.18361 34.5993C6.25999 34.5993 7.12595 35.4652 7.12595 36.5416C7.12595 37.6099 6.25999 38.4839 5.18361 38.4839Z" fill="#F70042"/>
</svg>
